<svg id="Capa_1" data-name="Capa 1" xmlns="http://www.w3.org/2000/svg" viewBox="0 0 142.77 145.62"><defs><style>.cls-1{fill:#ffa400;}.cls-2{fill:#372e2c;}.cls-3{fill:none;stroke:#372e2c;stroke-linecap:round;stroke-linejoin:round;stroke-width:1.5px;}</style></defs><path class="cls-1" d="M99.35,84.32l1.19-.46a1.09,1.09,0,0,1,.47-.09c1,.13,1.87,2.4,2.08,3.31a5.67,5.67,0,0,1-4.36,7,9.86,9.86,0,0,1-2.54.3c-.35,0-2.73,0-2.86-.38a16.31,16.31,0,0,1-.62-1.78A5.09,5.09,0,0,1,95,86.37,20.66,20.66,0,0,1,99.35,84.32Z"/><path class="cls-2" d="M103.12,52.64a.71.71,0,0,1-.71-.71,2.93,2.93,0,1,0-5.85,0,.71.71,0,0,1-1.42,0,4.35,4.35,0,1,1,8.69,0A.71.71,0,0,1,103.12,52.64Z"/><path class="cls-2" d="M86.8,52.64a.71.71,0,0,1-.71-.71,2.93,2.93,0,1,0-5.85,0,.71.71,0,1,1-1.42,0,4.35,4.35,0,1,1,8.7,0A.71.71,0,0,1,86.8,52.64Z"/><path class="cls-2" d="M90.83,71.08a24.21,24.21,0,0,1-12-2.9c-4.75-2.67-6-6.18-5.5-8.59A10.31,10.31,0,0,1,74,57.76a6.45,6.45,0,0,0,.42-1.29,6.44,6.44,0,0,0-.09-1.89c0-.17,0-.34-.08-.52a17,17,0,0,1-.07-2.73,20.72,20.72,0,0,1,1-5.48,11.26,11.26,0,0,1,7.54-7.47.8.8,0,1,1,.51,1.51,9.74,9.74,0,0,0-6.54,6.44,19.59,19.59,0,0,0-.87,5.06,14.78,14.78,0,0,0,.06,2.47c0,.16,0,.32.07.49a7.47,7.47,0,0,1,.09,2.37,8,8,0,0,1-.51,1.63,9,9,0,0,0-.51,1.54c-.53,2.84,2.21,5.49,4.72,6.9,6.91,3.88,15.13,2.87,20.81,1.33a.8.8,0,0,1,1,.56.78.78,0,0,1-.56,1A38.72,38.72,0,0,1,90.83,71.08Z"/><path class="cls-2" d="M112.5,47.24a.8.8,0,0,1-.79-.73c-.06-.67-.11-1.34-.16-2a57.84,57.84,0,0,0-.78-6.63c-.28-1.36-.61-2.27-1.45-2.61-.6-.24-2.94,1.16-5.68,3.83a.8.8,0,0,1-1.13,0,.79.79,0,0,1,0-1.12c4.5-4.39,6.56-4.49,7.39-4.16,1.8.72,2.19,2.71,2.4,3.77a55.79,55.79,0,0,1,.81,6.82c.05.66.11,1.33.16,2a.8.8,0,0,1-.72.87Z"/><path class="cls-2" d="M92.23,56a19.7,19.7,0,0,0-6.85,0,.37.37,0,0,0-.19.63L88.54,60a.37.37,0,0,0,.53,0l3.35-3.35A.37.37,0,0,0,92.23,56Z"/><path class="cls-2" d="M95.35,66a.81.81,0,0,1-.44-1.56,4.45,4.45,0,0,0,2.76-2.24.8.8,0,0,1,1.09-.35A.82.82,0,0,1,99.11,63,6.14,6.14,0,0,1,95.35,66Z"/><path class="cls-3" d="M35.85,94.58c-2.05,7.81-4.06,15-3.18,23.18.55,5.11,5,10.4,10.64,7.25.78-.44-.08-2.28-.3-2.88-.42-1.13-1-2.22-1.4-3.38A9.51,9.51,0,0,1,43,110.54c1.91-2.81,4.74-4.84,7.22-7.17a27.29,27.29,0,0,0,6.92-10,18.45,18.45,0,0,0,.59-12"/><path class="cls-3" d="M49.42,116.9c.66,5.09,4.11,10.21,8,6.85.72-.63-1.3-5.33-1.54-6.19a12.63,12.63,0,0,1,.56-8.25c1.16-2.73,3.2-4.74,4.73-7.23a28.86,28.86,0,0,0,3.43-9.22"/><path class="cls-3" d="M60.92,90.06s8.24,5.36,21.45,3.83"/><path class="cls-3" d="M110.16,71.7c.11,6.41-2.06,11.88-4,18.27s-2.27,12.56-2.57,19.13c-.2,4.46-.7,9,.73,13.34,0,0-.53,2.43-2.39,2.38s-2.33-.73-2.33-.73"/><path class="cls-3" d="M83.87,113.61c.27,3.87.57,8,3.42,11,.93,1,2.29,1.75,3.56,1.33,3.36-1.09,1.61-10.67,1.55-13.37a123.44,123.44,0,0,1,1.1-17.39s4.88.26,7.69-2.31"/><path class="cls-3" d="M42.74,60.38a46.05,46.05,0,0,0,1.48-8.56c.36-6.19-1.29-12.66-6.83-16.08A14.09,14.09,0,0,0,22,36a8.62,8.62,0,0,0-3.26,4.4c-.46,1.42-.49,2.82.9,3.79a3.52,3.52,0,0,0,4.23-.45c.55-.47,1-1,1.54-1.55,2.17-2,4.55-3.25,7.64-2.2,8.81,3,4.24,14.58,2.73,20.83-1.19,4.9-1.83,10.45.91,15"/></svg>